<svg width="1366" height="705" xmlns="http://www.w3.org/2000/svg"><g><path d="M-95.45871815644205,-132.64490137808025L-107.5659276265651,506.15169142372906L-74.47002061642706,340.46730710193515Z" fill="#d5f9bd" stroke="#d5f9bd"></path><path d="M-95.45871815644205,-132.64490137808025L-74.47002061642706,340.46730710193515L-54.44766783155501,193.76843869686127Z" fill="#f4ffca" stroke="#f4ffca"></path><path d="M-95.45871815644205,-132.64490137808025L-54.44766783155501,193.76843869686127L-45.958441933616996,122.4305582139641Z" fill="#faffd9" stroke="#faffd9"></path><path d="M-95.45871815644205,-132.64490137808025L-45.958441933616996,122.4305582139641L24.736514752730727,105.72554647922516Z" fill="#fdffdc" stroke="#fdffdc"></path><path d="M-95.45871815644205,-132.64490137808025L24.736514752730727,105.72554647922516L94.12201713770628,-103.44486261717975Z" fill="#feffe5" stroke="#feffe5"></path><path d="M-95.45871815644205,-132.64490137808025L94.12201713770628,-103.44486261717975L631.188294030726,-132.1352163143456Z" fill="#e8f6d2" stroke="#e8f6d2"></path><path d="M94.12201713770628,-103.44486261717975L24.736514752730727,105.72554647922516L183.63616702146828,-55.35832146182656Z" fill="#f4fbda" stroke="#f4fbda"></path><path d="M94.12201713770628,-103.44486261717975L183.63616702146828,-55.35832146182656L339.95179764926434,-48.87646249495447Z" fill="#e8f6d3" stroke="#e8f6d3"></path><path d="M94.12201713770628,-103.44486261717975L339.95179764926434,-48.87646249495447L631.188294030726,-132.1352163143456Z" fill="#d6eec7" stroke="#d6eec7"></path><path d="M183.63616702146828,-55.35832146182656L24.736514752730727,105.72554647922516L187.4248953256756,97.52476193010807Z" fill="#edf9c9" stroke="#edf9c9"></path><path d="M183.63616702146828,-55.35832146182656L187.4248953256756,97.52476193010807L358.7164353020489,28.34827180020511Z" fill="#e2f4c4" stroke="#e2f4c4"></path><path d="M183.63616702146828,-55.35832146182656L358.7164353020489,28.34827180020511L339.95179764926434,-48.87646249495447Z" fill="#def2cb" stroke="#def2cb"></path><path d="M339.95179764926434,-48.87646249495447L358.7164353020489,28.34827180020511L496.08732959255576,-39.881322579458356Z" fill="#d0ebc3" stroke="#d0ebc3"></path><path d="M339.95179764926434,-48.87646249495447L496.08732959255576,-39.881322579458356L631.188294030726,-132.1352163143456Z" fill="#c4e6c0" stroke="#c4e6c0"></path><path d="M496.08732959255576,-39.881322579458356L358.7164353020489,28.34827180020511L518.8373328186572,16.190947713330388Z" fill="#c8e8bb" stroke="#c8e8bb"></path><path d="M496.08732959255576,-39.881322579458356L518.8373328186572,16.190947713330388L631.188294030726,-132.1352163143456Z" fill="#bbe3bc" stroke="#bbe3bc"></path><path d="M631.188294030726,-132.1352163143456L518.8373328186572,16.190947713330388L658.2721204776317,35.16567804850638Z" fill="#b4dfb8" stroke="#b4dfb8"></path><path d="M631.188294030726,-132.1352163143456L658.2721204776317,35.16567804850638L779.1747915185988,-89.14776803925633Z" fill="#a9dab3" stroke="#a9dab3"></path><path d="M631.188294030726,-132.1352163143456L779.1747915185988,-89.14776803925633L922.322751218453,-120.22379659116268Z" fill="#9ed4ad" stroke="#9ed4ad"></path><path d="M779.1747915185988,-89.14776803925633L658.2721204776317,35.16567804850638L859.5163430459797,60.17694334499538Z" fill="#9fd5a7" stroke="#9fd5a7"></path><path d="M779.1747915185988,-89.14776803925633L859.5163430459797,60.17694334499538L922.322751218453,-120.22379659116268Z" fill="#95cea8" stroke="#95cea8"></path><path d="M922.322751218453,-120.22379659116268L859.5163430459797,60.17694334499538L958.4051478747278,56.46944317035377Z" fill="#90c79f" stroke="#90c79f"></path><path d="M922.322751218453,-120.22379659116268L958.4051478747278,56.46944317035377L1139.9576562736183,18.54950984939933Z" fill="#87bd9d" stroke="#87bd9d"></path><path d="M922.322751218453,-120.22379659116268L1139.9576562736183,18.54950984939933L1166.601965809241,-85.52993170917034Z" fill="#81b69c" stroke="#81b69c"></path><path d="M922.322751218453,-120.22379659116268L1166.601965809241,-85.52993170917034L1377.8215910866857,-66.93019394762814Z" fill="#80ad98" stroke="#80ad98"></path><path d="M1166.601965809241,-85.52993170917034L1139.9576562736183,18.54950984939933L1241.4115362334996,-30.576390093192458Z" fill="#80aa96" stroke="#80aa96"></path><path d="M1166.601965809241,-85.52993170917034L1241.4115362334996,-30.576390093192458L1377.8215910866857,-66.93019394762814Z" fill="#80a192" stroke="#80a192"></path><path d="M1241.4115362334996,-30.576390093192458L1139.9576562736183,18.54950984939933L1279.176106955856,42.19498445279896Z" fill="#7fa68c" stroke="#7fa68c"></path><path d="M1241.4115362334996,-30.576390093192458L1279.176106955856,42.19498445279896L1377.8215910866857,-66.93019394762814Z" fill="#809d8e" stroke="#809d8e"></path><path d="M1377.8215910866857,-66.93019394762814L1279.176106955856,42.19498445279896L1393.9169808849692,44.93710552342236Z" fill="#7f9886" stroke="#7f9886"></path><path d="M1377.8215910866857,-66.93019394762814L1393.9169808849692,44.93710552342236L1551.7807416245341,-27.85362864844501Z" fill="#808e86" stroke="#808e86"></path><path d="M1551.7807416245341,-27.85362864844501L1393.9169808849692,44.93710552342236L1582.0030773896724,110.03590336069465Z" fill="#7c8776" stroke="#7c8776"></path><path d="M-45.958441933616996,122.4305582139641L-54.44766783155501,193.76843869686127L24.736514752730727,105.72554647922516Z" fill="#f3ffc4" stroke="#f3ffc4"></path><path d="M24.736514752730727,105.72554647922516L-54.44766783155501,193.76843869686127L109.6463480964303,188.15398452803493Z" fill="#eafdbc" stroke="#eafdbc"></path><path d="M24.736514752730727,105.72554647922516L109.6463480964303,188.15398452803493L187.4248953256756,97.52476193010807Z" fill="#e8faba" stroke="#e8faba"></path><path d="M187.4248953256756,97.52476193010807L109.6463480964303,188.15398452803493L278.7030217051506,186.4273104351014Z" fill="#d9f5ad" stroke="#d9f5ad"></path><path d="M187.4248953256756,97.52476193010807L278.7030217051506,186.4273104351014L358.7164353020489,28.34827180020511Z" fill="#d8f3b0" stroke="#d8f3b0"></path><path d="M358.7164353020489,28.34827180020511L278.7030217051506,186.4273104351014L322.31004249304533,178.75382401049137Z" fill="#cff0a7" stroke="#cff0a7"></path><path d="M358.7164353020489,28.34827180020511L322.31004249304533,178.75382401049137L496.55443637631834,251.95065300911665Z" fill="#c1eb9f" stroke="#c1eb9f"></path><path d="M358.7164353020489,28.34827180020511L496.55443637631834,251.95065300911665L518.8373328186572,16.190947713330388Z" fill="#bfe8a6" stroke="#bfe8a6"></path><path d="M518.8373328186572,16.190947713330388L496.55443637631834,251.95065300911665L651.3318246323615,239.99076392501593Z" fill="#a6e093" stroke="#a6e093"></path><path d="M518.8373328186572,16.190947713330388L651.3318246323615,239.99076392501593L658.2721204776317,35.16567804850638Z" fill="#abdf9d" stroke="#abdf9d"></path><path d="M658.2721204776317,35.16567804850638L651.3318246323615,239.99076392501593L769.3773707281798,232.59072644636035Z" fill="#94d78a" stroke="#94d78a"></path><path d="M658.2721204776317,35.16567804850638L769.3773707281798,232.59072644636035L859.5163430459797,60.17694334499538Z" fill="#96d590" stroke="#96d590"></path><path d="M859.5163430459797,60.17694334499538L769.3773707281798,232.59072644636035L943.2048278208822,270.70178576745093Z" fill="#7aca7d" stroke="#7aca7d"></path><path d="M859.5163430459797,60.17694334499538L943.2048278208822,270.70178576745093L958.4051478747278,56.46944317035377Z" fill="#84c682" stroke="#84c682"></path><path d="M958.4051478747278,56.46944317035377L943.2048278208822,270.70178576745093L1152.6072273775935,233.73824754729867Z" fill="#6cb975" stroke="#6cb975"></path><path d="M958.4051478747278,56.46944317035377L1152.6072273775935,233.73824754729867L1139.9576562736183,18.54950984939933Z" fill="#78b57f" stroke="#78b57f"></path><path d="M1139.9576562736183,18.54950984939933L1152.6072273775935,233.73824754729867L1245.1173165254295,195.53313698619604Z" fill="#71aa71" stroke="#71aa71"></path><path d="M1139.9576562736183,18.54950984939933L1245.1173165254295,195.53313698619604L1279.176106955856,42.19498445279896Z" fill="#78a67c" stroke="#78a67c"></path><path d="M1279.176106955856,42.19498445279896L1245.1173165254295,195.53313698619604L1393.9169808849692,44.93710552342236Z" fill="#789d75" stroke="#789d75"></path><path d="M1393.9169808849692,44.93710552342236L1245.1173165254295,195.53313698619604L1419.927057651803,279.00668137706816Z" fill="#6a9664" stroke="#6a9664"></path><path d="M1393.9169808849692,44.93710552342236L1419.927057651803,279.00668137706816L1545.998116666451,221.86737396754324Z" fill="#678a5e" stroke="#678a5e"></path><path d="M1393.9169808849692,44.93710552342236L1545.998116666451,221.86737396754324L1582.0030773896724,110.03590336069465Z" fill="#758764" stroke="#758764"></path><path d="M1582.0030773896724,110.03590336069465L1545.998116666451,221.86737396754324L1551.9911606702954,316.7093534488231Z" fill="#5c7c54" stroke="#5c7c54"></path><path d="M1582.0030773896724,110.03590336069465L1551.9911606702954,316.7093534488231L1566.241189269349,551.5056157484651Z" fill="#3a7144" stroke="#3a7144"></path><path d="M-54.44766783155501,193.76843869686127L-74.47002061642706,340.46730710193515L17.734005097299814,356.1840287782252Z" fill="#c3f4af" stroke="#c3f4af"></path><path d="M-54.44766783155501,193.76843869686127L17.734005097299814,356.1840287782252L109.6463480964303,188.15398452803493Z" fill="#d0f7b1" stroke="#d0f7b1"></path><path d="M109.6463480964303,188.15398452803493L17.734005097299814,356.1840287782252L169.03545286506414,356.35767842642963Z" fill="#b7efa2" stroke="#b7efa2"></path><path d="M109.6463480964303,188.15398452803493L169.03545286506414,356.35767842642963L278.7030217051506,186.4273104351014Z" fill="#bff0a2" stroke="#bff0a2"></path><path d="M278.7030217051506,186.4273104351014L169.03545286506414,356.35767842642963L377.98879254609346,391.39439368620515Z" fill="#9fe590" stroke="#9fe590"></path><path d="M278.7030217051506,186.4273104351014L377.98879254609346,391.39439368620515L322.31004249304533,178.75382401049137Z" fill="#abe896" stroke="#abe896"></path><path d="M322.31004249304533,178.75382401049137L377.98879254609346,391.39439368620515L496.55443637631834,251.95065300911665Z" fill="#9ae28e" stroke="#9ae28e"></path><path d="M496.55443637631834,251.95065300911665L377.98879254609346,391.39439368620515L579.7561231534928,390.11899053119123Z" fill="#79d37f" stroke="#79d37f"></path><path d="M496.55443637631834,251.95065300911665L579.7561231534928,390.11899053119123L651.3318246323615,239.99076392501593Z" fill="#7cd581" stroke="#7cd581"></path><path d="M651.3318246323615,239.99076392501593L579.7561231534928,390.11899053119123L703.363562207669,393.72123724780977Z" fill="#65ca75" stroke="#65ca75"></path><path d="M651.3318246323615,239.99076392501593L703.363562207669,393.72123724780977L769.3773707281798,232.59072644636035Z" fill="#6dce79" stroke="#6dce79"></path><path d="M769.3773707281798,232.59072644636035L703.363562207669,393.72123724780977L813.0452325660735,344.0376312006265Z" fill="#5bc570" stroke="#5bc570"></path><path d="M769.3773707281798,232.59072644636035L813.0452325660735,344.0376312006265L943.2048278208822,270.70178576745093Z" fill="#5ec571" stroke="#5ec571"></path><path d="M943.2048278208822,270.70178576745093L813.0452325660735,344.0376312006265L999.0361068863422,364.1220460552722Z" fill="#4ab766" stroke="#4ab766"></path><path d="M943.2048278208822,270.70178576745093L999.0361068863422,364.1220460552722L1152.6072273775935,233.73824754729867Z" fill="#4bb066" stroke="#4bb066"></path><path d="M1152.6072273775935,233.73824754729867L999.0361068863422,364.1220460552722L1089.3302581831813,416.60097766667604Z" fill="#38a35b" stroke="#38a35b"></path><path d="M1152.6072273775935,233.73824754729867L1089.3302581831813,416.60097766667604L1233.6759009305388,430.2666034922004Z" fill="#309854" stroke="#309854"></path><path d="M1152.6072273775935,233.73824754729867L1233.6759009305388,430.2666034922004L1245.1173165254295,195.53313698619604Z" fill="#469d5d" stroke="#469d5d"></path><path d="M1245.1173165254295,195.53313698619604L1233.6759009305388,430.2666034922004L1365.5889784544706,407.4342179764062Z" fill="#358c50" stroke="#358c50"></path><path d="M1245.1173165254295,195.53313698619604L1365.5889784544706,407.4342179764062L1419.927057651803,279.00668137706816Z" fill="#448d54" stroke="#448d54"></path><path d="M1419.927057651803,279.00668137706816L1365.5889784544706,407.4342179764062L1551.9911606702954,316.7093534488231Z" fill="#387c49" stroke="#387c49"></path><path d="M1419.927057651803,279.00668137706816L1551.9911606702954,316.7093534488231L1545.998116666451,221.86737396754324Z" fill="#4b7e4f" stroke="#4b7e4f"></path><path d="M-74.47002061642706,340.46730710193515L-107.5659276265651,506.15169142372906L17.734005097299814,356.1840287782252Z" fill="#a3e4a1" stroke="#a3e4a1"></path><path d="M17.734005097299814,356.1840287782252L-107.5659276265651,506.15169142372906L57.12140550836921,570.6833085324615Z" fill="#92d392" stroke="#92d392"></path><path d="M17.734005097299814,356.1840287782252L57.12140550836921,570.6833085324615L169.03545286506414,356.35767842642963Z" fill="#93dc90" stroke="#93dc90"></path><path d="M169.03545286506414,356.35767842642963L57.12140550836921,570.6833085324615L281.89996344968677,575.1530076004565Z" fill="#7ac67f" stroke="#7ac67f"></path><path d="M169.03545286506414,356.35767842642963L281.89996344968677,575.1530076004565L377.98879254609346,391.39439368620515Z" fill="#7ad07d" stroke="#7ad07d"></path><path d="M377.98879254609346,391.39439368620515L281.89996344968677,575.1530076004565L405.8321926742792,536.037388946861Z" fill="#63bc70" stroke="#63bc70"></path><path d="M377.98879254609346,391.39439368620515L405.8321926742792,536.037388946861L486.8892189860344,492.04810791648924Z" fill="#5fbf70" stroke="#5fbf70"></path><path d="M377.98879254609346,391.39439368620515L486.8892189860344,492.04810791648924L579.7561231534928,390.11899053119123Z" fill="#62c873" stroke="#62c873"></path><path d="M579.7561231534928,390.11899053119123L486.8892189860344,492.04810791648924L681.9591643474996,476.2187585234642Z" fill="#4fba69" stroke="#4fba69"></path><path d="M579.7561231534928,390.11899053119123L681.9591643474996,476.2187585234642L703.363562207669,393.72123724780977Z" fill="#4cbe68" stroke="#4cbe68"></path><path d="M703.363562207669,393.72123724780977L681.9591643474996,476.2187585234642L792.6614594645798,577.7025799266994Z" fill="#36aa5b" stroke="#36aa5b"></path><path d="M703.363562207669,393.72123724780977L792.6614594645798,577.7025799266994L813.0452325660735,344.0376312006265Z" fill="#39b25e" stroke="#39b25e"></path><path d="M813.0452325660735,344.0376312006265L792.6614594645798,577.7025799266994L995.6869720760733,541.1916005797684Z" fill="#249e52" stroke="#249e52"></path><path d="M813.0452325660735,344.0376312006265L995.6869720760733,541.1916005797684L999.0361068863422,364.1220460552722Z" fill="#2da757" stroke="#2da757"></path><path d="M999.0361068863422,364.1220460552722L995.6869720760733,541.1916005797684L1089.3302581831813,416.60097766667604Z" fill="#20984f" stroke="#20984f"></path><path d="M1089.3302581831813,416.60097766667604L995.6869720760733,541.1916005797684L1070.7586584147066,560.9074521996081Z" fill="#108545" stroke="#108545"></path><path d="M1089.3302581831813,416.60097766667604L1070.7586584147066,560.9074521996081L1244.8944862000644,501.12705026753247Z" fill="#0f7f43" stroke="#0f7f43"></path><path d="M1089.3302581831813,416.60097766667604L1244.8944862000644,501.12705026753247L1233.6759009305388,430.2666034922004Z" fill="#188445" stroke="#188445"></path><path d="M1233.6759009305388,430.2666034922004L1244.8944862000644,501.12705026753247L1365.5889784544706,407.4342179764062Z" fill="#187b41" stroke="#187b41"></path><path d="M1365.5889784544706,407.4342179764062L1244.8944862000644,501.12705026753247L1396.6895504202694,514.1445866692811Z" fill="#136f3a" stroke="#136f3a"></path><path d="M1365.5889784544706,407.4342179764062L1396.6895504202694,514.1445866692811L1551.9911606702954,316.7093534488231Z" fill="#20713d" stroke="#20713d"></path><path d="M1551.9911606702954,316.7093534488231L1396.6895504202694,514.1445866692811L1566.241189269349,551.5056157484651Z" fill="#155f33" stroke="#155f33"></path><path d="M-107.5659276265651,506.15169142372906L-113.8436851836741,858.7116036191583L-63.68211611174047,628.3470333460718Z" fill="#80a583" stroke="#80a583"></path><path d="M-107.5659276265651,506.15169142372906L-63.68211611174047,628.3470333460718L57.12140550836921,570.6833085324615Z" fill="#80bd8a" stroke="#80bd8a"></path><path d="M57.12140550836921,570.6833085324615L-63.68211611174047,628.3470333460718L76.5326097048819,723.7902694288641Z" fill="#7daa7b" stroke="#7daa7b"></path><path d="M57.12140550836921,570.6833085324615L76.5326097048819,723.7902694288641L273.54291290044785,659.7717722319067Z" fill="#71a26f" stroke="#71a26f"></path><path d="M57.12140550836921,570.6833085324615L273.54291290044785,659.7717722319067L281.89996344968677,575.1530076004565Z" fill="#69ab6f" stroke="#69ab6f"></path><path d="M281.89996344968677,575.1530076004565L273.54291290044785,659.7717722319067L407.90614225901663,656.6980786900967Z" fill="#5b9e62" stroke="#5b9e62"></path><path d="M281.89996344968677,575.1530076004565L407.90614225901663,656.6980786900967L405.8321926742792,536.037388946861Z" fill="#55a565" stroke="#55a565"></path><path d="M405.8321926742792,536.037388946861L407.90614225901663,656.6980786900967L536.1168210301548,655.3794681932777Z" fill="#499a5c" stroke="#499a5c"></path><path d="M405.8321926742792,536.037388946861L536.1168210301548,655.3794681932777L486.8892189860344,492.04810791648924Z" fill="#46a662" stroke="#46a662"></path><path d="M486.8892189860344,492.04810791648924L536.1168210301548,655.3794681932777L681.9591643474996,476.2187585234642Z" fill="#3ea55f" stroke="#3ea55f"></path><path d="M681.9591643474996,476.2187585234642L536.1168210301548,655.3794681932777L709.6603764407337,669.0629428066313Z" fill="#309252" stroke="#309252"></path><path d="M681.9591643474996,476.2187585234642L709.6603764407337,669.0629428066313L792.6614594645798,577.7025799266994Z" fill="#25934f" stroke="#25934f"></path><path d="M792.6614594645798,577.7025799266994L709.6603764407337,669.0629428066313L824.3030506744981,662.2470928821713Z" fill="#1e8145" stroke="#1e8145"></path><path d="M792.6614594645798,577.7025799266994L824.3030506744981,662.2470928821713L995.6869720760733,541.1916005797684Z" fill="#148345" stroke="#148345"></path><path d="M995.6869720760733,541.1916005797684L824.3030506744981,662.2470928821713L990.5597387719899,708.1269239634275Z" fill="#0e713c" stroke="#0e713c"></path><path d="M995.6869720760733,541.1916005797684L990.5597387719899,708.1269239634275L1070.7586584147066,560.9074521996081Z" fill="#07703b" stroke="#07703b"></path><path d="M1070.7586584147066,560.9074521996081L990.5597387719899,708.1269239634275L1170.3446376509964,676.2317159771919Z" fill="#025f33" stroke="#025f33"></path><path d="M1070.7586584147066,560.9074521996081L1170.3446376509964,676.2317159771919L1244.8944862000644,501.12705026753247Z" fill="#006737" stroke="#006737"></path><path d="M1244.8944862000644,501.12705026753247L1170.3446376509964,676.2317159771919L1228.7285962421447,673.1642663106322Z" fill="#00582f" stroke="#00582f"></path><path d="M1244.8944862000644,501.12705026753247L1228.7285962421447,673.1642663106322L1396.6895504202694,514.1445866692811Z" fill="#005d32" stroke="#005d32"></path><path d="M1396.6895504202694,514.1445866692811L1228.7285962421447,673.1642663106322L1469.5885631348938,647.9729511681944Z" fill="#004928" stroke="#004928"></path><path d="M1396.6895504202694,514.1445866692811L1469.5885631348938,647.9729511681944L1566.241189269349,551.5056157484651Z" fill="#004727" stroke="#004727"></path><path d="M1566.241189269349,551.5056157484651L1469.5885631348938,647.9729511681944L1517.8963052853942,722.655641566962Z" fill="#00311c" stroke="#00311c"></path><path d="M1566.241189269349,551.5056157484651L1517.8963052853942,722.655641566962L1517.47170092538,796.0196857061237Z" fill="#002315" stroke="#002315"></path><path d="M-63.68211611174047,628.3470333460718L-113.8436851836741,858.7116036191583L76.5326097048819,723.7902694288641Z" fill="#809374" stroke="#809374"></path><path d="M76.5326097048819,723.7902694288641L-113.8436851836741,858.7116036191583L132.01179770752788,786.2643492221832Z" fill="#7c8468" stroke="#7c8468"></path><path d="M76.5326097048819,723.7902694288641L132.01179770752788,786.2643492221832L273.54291290044785,659.7717722319067Z" fill="#6e8f64" stroke="#6e8f64"></path><path d="M273.54291290044785,659.7717722319067L132.01179770752788,786.2643492221832L195.3952626697719,794.5855652634054Z" fill="#69875e" stroke="#69875e"></path><path d="M273.54291290044785,659.7717722319067L195.3952626697719,794.5855652634054L318.3138986863196,820.3316445462406Z" fill="#628256" stroke="#628256"></path><path d="M273.54291290044785,659.7717722319067L318.3138986863196,820.3316445462406L407.90614225901663,656.6980786900967Z" fill="#598957" stroke="#598957"></path><path d="M407.90614225901663,656.6980786900967L318.3138986863196,820.3316445462406L525.8256561867893,776.9152410328388Z" fill="#4e7a4e" stroke="#4e7a4e"></path><path d="M407.90614225901663,656.6980786900967L525.8256561867893,776.9152410328388L536.1168210301548,655.3794681932777Z" fill="#448450" stroke="#448450"></path><path d="M536.1168210301548,655.3794681932777L525.8256561867893,776.9152410328388L709.6603764407337,669.0629428066313Z" fill="#377c49" stroke="#377c49"></path><path d="M709.6603764407337,669.0629428066313L525.8256561867893,776.9152410328388L668.7764279264957,861.648734556511Z" fill="#31693e" stroke="#31693e"></path><path d="M709.6603764407337,669.0629428066313L668.7764279264957,861.648734556511L799.1217557899654,777.8478569258004Z" fill="#256338" stroke="#256338"></path><path d="M709.6603764407337,669.0629428066313L799.1217557899654,777.8478569258004L824.3030506744981,662.2470928821713Z" fill="#1e703c" stroke="#1e703c"></path><path d="M824.3030506744981,662.2470928821713L799.1217557899654,777.8478569258004L990.5597387719899,708.1269239634275Z" fill="#146535" stroke="#146535"></path><path d="M990.5597387719899,708.1269239634275L799.1217557899654,777.8478569258004L951.8929339013994,857.7408861927688Z" fill="#10502b" stroke="#10502b"></path><path d="M990.5597387719899,708.1269239634275L951.8929339013994,857.7408861927688L1179.7435233090073,850.4631771147251Z" fill="#053c21" stroke="#053c21"></path><path d="M990.5597387719899,708.1269239634275L1179.7435233090073,850.4631771147251L1170.3446376509964,676.2317159771919Z" fill="#004325" stroke="#004325"></path><path d="M1170.3446376509964,676.2317159771919L1179.7435233090073,850.4631771147251L1228.7285962421447,673.1642663106322Z" fill="#003d22" stroke="#003d22"></path><path d="M1228.7285962421447,673.1642663106322L1179.7435233090073,850.4631771147251L1225.9324525482953,858.2374830264598Z" fill="#002c19" stroke="#002c19"></path><path d="M1228.7285962421447,673.1642663106322L1225.9324525482953,858.2374830264598L1453.3172415476292,818.8431092631072Z" fill="#002516" stroke="#002516"></path><path d="M1228.7285962421447,673.1642663106322L1453.3172415476292,818.8431092631072L1469.5885631348938,647.9729511681944Z" fill="#002e1a" stroke="#002e1a"></path><path d="M1469.5885631348938,647.9729511681944L1453.3172415476292,818.8431092631072L1517.8963052853942,722.655641566962Z" fill="#001f13" stroke="#001f13"></path><path d="M1517.8963052853942,722.655641566962L1453.3172415476292,818.8431092631072L1517.47170092538,796.0196857061237Z" fill="#00110c" stroke="#00110c"></path><path d="M-113.8436851836741,858.7116036191583L668.7764279264957,861.648734556511L318.3138986863196,820.3316445462406Z" fill="#5f724c" stroke="#5f724c"></path><path d="M-113.8436851836741,858.7116036191583L318.3138986863196,820.3316445462406L195.3952626697719,794.5855652634054Z" fill="#717a5a" stroke="#717a5a"></path><path d="M-113.8436851836741,858.7116036191583L195.3952626697719,794.5855652634054L132.01179770752788,786.2643492221832Z" fill="#787c61" stroke="#787c61"></path><path d="M318.3138986863196,820.3316445462406L668.7764279264957,861.648734556511L525.8256561867893,776.9152410328388Z" fill="#426640" stroke="#426640"></path><path d="M668.7764279264957,861.648734556511L1225.9324525482953,858.2374830264598L951.8929339013994,857.7408861927688Z" fill="#0d4423" stroke="#0d4423"></path><path d="M668.7764279264957,861.648734556511L951.8929339013994,857.7408861927688L799.1217557899654,777.8478569258004Z" fill="#1a532b" stroke="#1a532b"></path><path d="M951.8929339013994,857.7408861927688L1225.9324525482953,858.2374830264598L1179.7435233090073,850.4631771147251Z" fill="#00311a" stroke="#00311a"></path></g></svg>